# Blender 4.4.3
# www.blender.org
mtllib cargo.mtl
o Cube.021
v -1.000000 0.000000 1.618859
v -1.000000 1.000000 1.618859
v -1.000000 0.000000 -1.618859
v -1.000000 1.000000 -1.618859
v 1.000000 0.000000 1.618859
v 1.000000 1.000000 1.618859
v 1.000000 0.000000 -1.618859
v 1.000000 1.000000 -1.618859
vn -1.0000 -0.0000 -0.0000
vn -0.0000 -0.0000 -1.0000
vn 1.0000 -0.0000 -0.0000
vn -0.0000 -0.0000 1.0000
vn -0.0000 -1.0000 -0.0000
vn -0.0000 1.0000 -0.0000
vt 0.812500 0.750000
vt 0.812500 0.968750
vt 0.031250 0.968750
vt 0.031250 0.750000
vt 0.718750 0.031250
vt 0.968750 0.031250
vt 0.968750 0.437500
vt 0.718750 0.437500
vt 0.687500 0.718750
vt 0.375000 0.718750
vt 0.375000 0.031250
vt 0.687500 0.031250
vt 0.343750 0.718750
vt 0.031250 0.718750
vt 0.031250 0.031250
vt 0.343750 0.031250
s 0
usemtl cargo
f 1/1/1 2/2/1 4/3/1 3/4/1
f 3/5/2 4/6/2 8/7/2 7/8/2
f 7/4/3 8/3/3 6/2/3 5/1/3
f 5/5/4 6/6/4 2/7/4 1/8/4
f 3/9/5 7/10/5 5/11/5 1/12/5
f 8/13/6 4/14/6 2/15/6 6/16/6