# Blender 4.4.3
# www.blender.org
mtllib ship_low_poly.mtl
o Cube.010
v -1.000000 -1.000000 1.000000
v -1.206661 1.000000 1.000000
v 1.000000 -1.000000 1.000000
v 1.206661 1.000000 1.000000
v -0.577516 -2.137576 0.577516
v 0.577516 -2.137576 0.577516
v -1.000000 -1.000000 -1.000000
v -1.206661 1.000000 -1.000000
v 1.000000 -1.000000 -1.000000
v 1.206661 1.000000 -1.000000
v -0.577516 -2.137576 -0.577516
v 0.577516 -2.137576 -0.577516
vn -0.0000 -1.0000 -0.0000
vn -0.9947 -0.1028 -0.0000
vn 0.9374 -0.3482 -0.0000
vn -0.9374 -0.3482 -0.0000
vn -0.0000 -0.3482 0.9374
vn 0.9947 -0.1028 -0.0000
vn -0.0000 -0.3482 -0.9374
vn -0.0000 -0.0000 1.0000
vn -0.0000 -0.0000 -1.0000
vn -0.0000 1.0000 -0.0000
vt 0.375000 0.671875
vt 0.375000 0.765625
vt 0.453125 0.765625
vt 0.453125 0.671875
vt 0.328125 0.187500
vt 0.031250 0.187500
vt 0.031250 0.484375
vt 0.328125 0.484375
vt 0.093750 0.015625
vt 0.265625 0.015625
vt 0.656250 0.156250
vt 0.390625 0.156250
vt 0.453125 0.015625
vt 0.593750 0.015625
vt 0.687500 0.421875
vt 0.359375 0.421875
vt 0.343750 0.781250
vt 0.500000 0.781250
vt 0.500000 0.968750
vt 0.343750 0.968750
s 0
usemtl lander_ship
f 5/1/1 11/2/1 12/3/1 6/4/1
f 7/5/2 1/6/2 2/7/2 8/8/2
f 6/9/3 12/10/3 9/5/3 3/6/3
f 7/5/4 11/10/4 5/9/4 1/6/4
f 3/11/5 1/12/5 5/13/5 6/14/5
f 3/6/6 9/5/6 10/8/6 4/7/6
f 9/11/7 12/14/7 11/13/7 7/12/7
f 4/15/8 2/16/8 1/12/8 3/11/8
f 8/16/9 10/15/9 9/11/9 7/12/9
f 4/17/10 10/18/10 8/19/10 2/20/10
o Cube.015
v 0.000000 -0.322774 0.921613
v -0.504764 0.686754 0.921613
v 0.504764 0.686754 0.921613
v 0.000000 -0.322774 5.220096
v -0.504764 0.686754 5.220096
v 0.504764 0.686754 5.220096
v 0.000000 -0.322774 -0.921613
v -0.504764 0.686754 -0.921613
v 0.504764 0.686754 -0.921613
v 0.000000 -0.322774 -5.220096
v -0.504764 0.686754 -5.220096
v 0.504764 0.686754 -5.220096
vn -0.8944 -0.4472 -0.0000
vn -0.0000 1.0000 -0.0000
vn 0.8944 -0.4472 -0.0000
vt 0.531250 0.937500
vt 0.531250 0.828125
vt 0.968750 0.828125
vt 0.968750 0.937500
vt 0.968750 0.625000
vt 0.968750 0.718750
vt 0.531250 0.718750
vt 0.531250 0.625000
s 0
usemtl lander_ship
f 14/21/11 13/22/11 16/23/11 17/24/11
f 15/25/12 14/26/12 17/27/12 18/28/12
f 18/22/13 16/27/13 13/26/13 15/23/13
f 20/21/11 23/24/11 22/23/11 19/22/11
f 21/25/12 24/28/12 23/27/12 20/26/12
f 24/22/13 21/23/13 19/26/13 22/27/13
o Cube.017
v 7.000000 0.950033 -0.006403
v 6.346688 0.950033 -1.006403
v 5.653312 0.950033 -1.006403
v 5.000000 0.950033 -0.006403
v 5.653312 0.950033 0.993597
v 6.346688 0.950033 0.993597
v 7.000000 -1.162602 -0.006403
v 6.346688 -1.162602 0.993597
v 5.653312 -1.162602 0.993597
v 5.000000 -1.162602 -0.006403
v 6.346688 -1.162602 -1.006403
v 5.653312 -1.162602 -1.006403
v 6.288135 -0.980676 -0.006403
v 6.000000 -0.980676 0.281732
v 5.855932 -0.980676 -0.150471
v 5.962367 -1.530986 0.639791
v 6.632081 -1.530986 -0.029924
v 5.627510 -1.530986 -0.364781
v 5.962367 -2.520785 0.796503
v 6.788794 -2.520785 -0.029924
v 5.549153 -2.520785 -0.443137
vn -0.0000 -0.0000 -1.0000
vn -0.8372 -0.0000 0.5469
vn -0.8372 -0.0000 -0.5469
vn 0.8372 -0.0000 -0.5469
vn -0.0000 -0.0000 1.0000
vn -0.0000 -1.0000 -0.0000
vn -0.0000 1.0000 -0.0000
vn 0.7027 0.1113 0.7027
vn 0.3158 0.0500 -0.9475
vn 0.6539 0.3807 0.6539
vn 0.3076 0.2317 -0.9229
vn -0.9157 0.2612 0.3052
vn -0.9475 0.0500 0.3158
vn 0.8372 -0.0000 0.5469
vt 0.109375 0.984375
vt 0.218750 0.984375
vt 0.218750 0.671875
vt 0.109375 0.671875
vt 0.015625 0.984375
vt 0.015625 0.671875
vt 0.312500 0.984375
vt 0.312500 0.671875
vt 0.953125 0.468750
vt 0.859375 0.437500
vt 0.859375 0.375000
vt 0.890625 0.343750
vt 0.984375 0.375000
vt 0.984375 0.437500
vt 0.812500 0.468750
vt 0.718750 0.437500
vt 0.718750 0.375000
vt 0.750000 0.343750
vt 0.843750 0.375000
vt 0.843750 0.437500
vt 0.828125 0.218750
vt 0.828125 0.000000
vt 1.000000 0.000000
vt 0.968750 0.218750
vt 0.890625 0.328125
vt 0.828125 0.328125
vt 0.765625 0.328125
vt 0.687500 0.218750
vt 0.656250 0.000000
vt 0.500000 0.437500
vt 0.375000 0.562500
vt 0.375000 0.437500
s 0
usemtl lander_ship
f 27/29/14 26/30/14 35/31/14 36/32/14
f 33/32/15 29/29/15 28/33/15 34/34/15
f 28/33/16 27/29/16 36/32/16 34/34/16
f 35/31/17 26/30/17 25/35/17 31/36/17
f 32/31/18 30/30/18 29/29/18 33/32/18
f 33/37/19 34/38/19 36/39/19 35/40/19 31/41/19 32/42/19
f 27/43/20 28/44/20 29/45/20 30/46/20 25/47/20 26/48/20
f 40/49/21 43/50/21 44/51/21 41/52/21
f 41/52/22 44/51/22 45/50/22 42/49/22
f 37/53/23 38/54/23 40/49/23 41/52/23
f 39/54/24 37/53/24 41/52/24 42/49/24
f 38/54/25 39/55/25 42/56/25 40/49/25
f 42/56/26 45/57/26 43/50/26 40/49/26
f 43/58/19 45/59/19 44/60/19
f 25/35/27 30/30/27 32/31/27 31/36/27
o Cube.018
v 0.053848 0.950033 -5.000000
v 1.053848 0.950033 -5.653312
v 1.053848 0.950033 -6.346688
v 0.053848 0.950033 -7.000000
v -0.946152 0.950033 -6.346688
v -0.946152 0.950033 -5.653312
v 0.053848 -1.162602 -5.000000
v -0.946152 -1.162602 -5.653312
v -0.946152 -1.162602 -6.346688
v 0.053848 -1.162602 -7.000000
v 1.053848 -1.162602 -5.653312
v 1.053848 -1.162602 -6.346688
v 0.053848 -0.980676 -5.711865
v -0.234287 -0.980676 -6.000000
v 0.197916 -0.980676 -6.144068
v -0.592345 -1.530986 -6.037633
v 0.077369 -1.530986 -5.367919
v 0.412226 -1.530986 -6.372490
v -0.749058 -2.520785 -6.037633
v 0.077369 -2.520785 -5.211206
v 0.490583 -2.520785 -6.450847
vn 1.0000 -0.0000 -0.0000
vn -0.5469 -0.0000 -0.8372
vn 0.5469 -0.0000 -0.8372
vn 0.5469 -0.0000 0.8372
vn -1.0000 -0.0000 -0.0000
vn -0.0000 -1.0000 -0.0000
vn -0.0000 1.0000 -0.0000
vn -0.7027 0.1113 0.7027
vn 0.9475 0.0500 0.3158
vn -0.6539 0.3807 0.6539
vn 0.9229 0.2317 0.3076
vn -0.3052 0.2612 -0.9157
vn -0.3158 0.0500 -0.9475
vn -0.5469 -0.0000 0.8372
vt 0.109375 0.984375
vt 0.218750 0.984375
vt 0.218750 0.671875
vt 0.109375 0.671875
vt 0.015625 0.984375
vt 0.015625 0.671875
vt 0.312500 0.984375
vt 0.312500 0.671875
vt 0.953125 0.468750
vt 0.859375 0.437500
vt 0.859375 0.375000
vt 0.890625 0.343750
vt 0.984375 0.375000
vt 0.984375 0.437500
vt 0.812500 0.468750
vt 0.718750 0.437500
vt 0.718750 0.375000
vt 0.750000 0.343750
vt 0.843750 0.375000
vt 0.843750 0.437500
vt 0.828125 0.218750
vt 0.828125 0.000000
vt 1.000000 0.000000
vt 0.968750 0.218750
vt 0.890625 0.328125
vt 0.828125 0.328125
vt 0.765625 0.328125
vt 0.687500 0.218750
vt 0.656250 0.000000
vt 0.500000 0.437500
vt 0.375000 0.562500
vt 0.375000 0.437500
s 0
usemtl lander_ship
f 48/61/28 47/62/28 56/63/28 57/64/28
f 54/64/29 50/61/29 49/65/29 55/66/29
f 49/65/30 48/61/30 57/64/30 55/66/30
f 56/63/31 47/62/31 46/67/31 52/68/31
f 53/63/32 51/62/32 50/61/32 54/64/32
f 54/69/33 55/70/33 57/71/33 56/72/33 52/73/33 53/74/33
f 48/75/34 49/76/34 50/77/34 51/78/34 46/79/34 47/80/34
f 61/81/35 64/82/35 65/83/35 62/84/35
f 62/84/36 65/83/36 66/82/36 63/81/36
f 58/85/37 59/86/37 61/81/37 62/84/37
f 60/86/38 58/85/38 62/84/38 63/81/38
f 59/86/39 60/87/39 63/88/39 61/81/39
f 63/88/40 66/89/40 64/82/40 61/81/40
f 64/90/33 66/91/33 65/92/33
f 46/67/41 51/62/41 53/63/41 52/68/41
o Cube.019
v -5.907546 0.950033 0.941983
v -4.907546 0.950033 0.288672
v -4.907546 0.950033 -0.404705
v -5.907546 0.950033 -1.058017
v -6.907546 0.950033 -0.404705
v -6.907546 0.950033 0.288672
v -5.907546 -1.162602 0.941983
v -6.907546 -1.162602 0.288672
v -6.907546 -1.162602 -0.404705
v -5.907546 -1.162602 -1.058017
v -4.907546 -1.162602 0.288672
v -4.907546 -1.162602 -0.404705
v -5.907546 -0.980676 0.230118
v -6.195681 -0.980676 -0.058017
v -5.763478 -0.980676 -0.202084
v -6.553739 -1.530986 -0.095650
v -5.884025 -1.530986 0.574064
v -5.549168 -1.530986 -0.430507
v -6.710452 -2.520785 -0.095650
v -5.884025 -2.520785 0.730777
v -5.470811 -2.520785 -0.508864
vn 1.0000 -0.0000 -0.0000
vn -0.5469 -0.0000 -0.8372
vn 0.5469 -0.0000 -0.8372
vn 0.5469 -0.0000 0.8372
vn -1.0000 -0.0000 -0.0000
vn -0.0000 -1.0000 -0.0000
vn -0.0000 1.0000 -0.0000
vn -0.7027 0.1113 0.7027
vn 0.9475 0.0500 0.3158
vn -0.6539 0.3807 0.6539
vn 0.9229 0.2317 0.3076
vn -0.3052 0.2612 -0.9157
vn -0.3158 0.0500 -0.9475
vn -0.5469 -0.0000 0.8372
vt 0.109375 0.984375
vt 0.218750 0.984375
vt 0.218750 0.671875
vt 0.109375 0.671875
vt 0.015625 0.984375
vt 0.015625 0.671875
vt 0.312500 0.984375
vt 0.312500 0.671875
vt 0.953125 0.468750
vt 0.859375 0.437500
vt 0.859375 0.375000
vt 0.890625 0.343750
vt 0.984375 0.375000
vt 0.984375 0.437500
vt 0.812500 0.468750
vt 0.718750 0.437500
vt 0.718750 0.375000
vt 0.750000 0.343750
vt 0.843750 0.375000
vt 0.843750 0.437500
vt 0.828125 0.218750
vt 0.828125 0.000000
vt 1.000000 0.000000
vt 0.968750 0.218750
vt 0.890625 0.328125
vt 0.828125 0.328125
vt 0.765625 0.328125
vt 0.687500 0.218750
vt 0.656250 0.000000
vt 0.500000 0.437500
vt 0.375000 0.562500
vt 0.375000 0.437500
s 0
usemtl lander_ship
f 69/93/42 68/94/42 77/95/42 78/96/42
f 75/96/43 71/93/43 70/97/43 76/98/43
f 70/97/44 69/93/44 78/96/44 76/98/44
f 77/95/45 68/94/45 67/99/45 73/100/45
f 74/95/46 72/94/46 71/93/46 75/96/46
f 75/101/47 76/102/47 78/103/47 77/104/47 73/105/47 74/106/47
f 69/107/48 70/108/48 71/109/48 72/110/48 67/111/48 68/112/48
f 82/113/49 85/114/49 86/115/49 83/116/49
f 83/116/50 86/115/50 87/114/50 84/113/50
f 79/117/51 80/118/51 82/113/51 83/116/51
f 81/118/52 79/117/52 83/116/52 84/113/52
f 80/118/53 81/119/53 84/120/53 82/113/53
f 84/120/54 87/121/54 85/114/54 82/113/54
f 85/122/47 87/123/47 86/124/47
f 67/99/55 72/94/55 74/95/55 73/100/55
o Cube.020
v 0.002234 0.950033 7.000000
v 1.002234 0.950033 6.346688
v 1.002234 0.950033 5.653312
v 0.002234 0.950033 5.000000
v -0.997766 0.950033 5.653312
v -0.997766 0.950033 6.346688
v 0.002234 -1.162602 7.000000
v -0.997766 -1.162602 6.346688
v -0.997766 -1.162602 5.653312
v 0.002234 -1.162602 5.000000
v 1.002234 -1.162602 6.346688
v 1.002234 -1.162602 5.653312
v 0.002234 -0.980676 6.288135
v -0.285901 -0.980676 6.000000
v 0.146302 -0.980676 5.855932
v -0.643959 -1.530986 5.962367
v 0.025755 -1.530986 6.632081
v 0.360613 -1.530986 5.627510
v -0.800672 -2.520785 5.962367
v 0.025755 -2.520785 6.788794
v 0.438969 -2.520785 5.549153
vn 1.0000 -0.0000 -0.0000
vn -0.5469 -0.0000 -0.8372
vn 0.5469 -0.0000 -0.8372
vn 0.5469 -0.0000 0.8372
vn -1.0000 -0.0000 -0.0000
vn -0.0000 -1.0000 -0.0000
vn -0.0000 1.0000 -0.0000
vn -0.7027 0.1113 0.7027
vn 0.9475 0.0500 0.3158
vn -0.6539 0.3807 0.6539
vn 0.9229 0.2317 0.3076
vn -0.3052 0.2612 -0.9157
vn -0.3158 0.0500 -0.9475
vn -0.5469 -0.0000 0.8372
vt 0.109375 0.984375
vt 0.218750 0.984375
vt 0.218750 0.671875
vt 0.109375 0.671875
vt 0.015625 0.984375
vt 0.015625 0.671875
vt 0.312500 0.984375
vt 0.312500 0.671875
vt 0.953125 0.468750
vt 0.859375 0.437500
vt 0.859375 0.375000
vt 0.890625 0.343750
vt 0.984375 0.375000
vt 0.984375 0.437500
vt 0.812500 0.468750
vt 0.718750 0.437500
vt 0.718750 0.375000
vt 0.750000 0.343750
vt 0.843750 0.375000
vt 0.843750 0.437500
vt 0.828125 0.218750
vt 0.828125 0.000000
vt 1.000000 0.000000
vt 0.968750 0.218750
vt 0.890625 0.328125
vt 0.828125 0.328125
vt 0.765625 0.328125
vt 0.687500 0.218750
vt 0.656250 0.000000
vt 0.500000 0.437500
vt 0.375000 0.562500
vt 0.375000 0.437500
s 0
usemtl lander_ship
f 90/125/56 89/126/56 98/127/56 99/128/56
f 96/128/57 92/125/57 91/129/57 97/130/57
f 91/129/58 90/125/58 99/128/58 97/130/58
f 98/127/59 89/126/59 88/131/59 94/132/59
f 95/127/60 93/126/60 92/125/60 96/128/60
f 96/133/61 97/134/61 99/135/61 98/136/61 94/137/61 95/138/61
f 90/139/62 91/140/62 92/141/62 93/142/62 88/143/62 89/144/62
f 103/145/63 106/146/63 107/147/63 104/148/63
f 104/148/64 107/147/64 108/146/64 105/145/64
f 100/149/65 101/150/65 103/145/65 104/148/65
f 102/150/66 100/149/66 104/148/66 105/145/66
f 101/150/67 102/151/67 105/152/67 103/145/67
f 105/152/68 108/153/68 106/146/68 103/145/68
f 106/154/61 108/155/61 107/156/61
f 88/131/69 93/126/69 95/127/69 94/132/69
o Cube.016
v -0.921613 -0.322774 0.000000
v -0.921614 0.686754 -0.504764
v -0.921613 0.686754 0.504764
v -5.220096 -0.322774 0.000001
v -5.220096 0.686754 -0.504763
v -5.220096 0.686754 0.504765
v 0.921613 -0.322774 -0.000000
v 0.921613 0.686754 -0.504764
v 0.921614 0.686754 0.504764
v 5.220096 -0.322774 -0.000001
v 5.220096 0.686754 -0.504765
v 5.220096 0.686754 0.504763
vn -0.0000 -0.4472 -0.8944
vn -0.0000 1.0000 -0.0000
vn -0.0000 -0.4472 0.8944
vt 0.531250 0.937500
vt 0.531250 0.828125
vt 0.968750 0.828125
vt 0.968750 0.937500
vt 0.968750 0.625000
vt 0.968750 0.718750
vt 0.531250 0.718750
vt 0.531250 0.625000
s 0
usemtl lander_ship
f 110/157/70 109/158/70 112/159/70 113/160/70
f 111/161/71 110/162/71 113/163/71 114/164/71
f 114/158/72 112/163/72 109/162/72 111/159/72
f 116/157/70 119/160/70 118/159/70 115/158/70
f 117/161/71 120/164/71 119/163/71 116/162/71
f 120/158/72 117/159/72 115/162/72 118/163/72
o Aline_fighter
v 0.141622 -0.347798 0.462011
v 0.141622 0.002448 0.185068
v -0.358378 -0.347798 0.462011
v -0.358378 0.002448 0.185068
v 0.141622 -0.347798 -0.442986
v 0.141622 0.002448 -0.166043
v -0.358378 -0.347798 -0.442986
v -0.358378 0.002448 -0.166043
v 1.101252 -0.149792 0.009512
v -0.694446 -0.149792 0.009512
v -0.358379 -0.519541 -0.347822
v 0.141622 -0.144480 -0.347822
v 0.141622 -0.519541 -0.347822
v -0.358379 -0.144480 -0.347822
v 0.141622 -0.332011 -0.720529
v -0.358379 -0.332011 -0.720529
v 0.700956 -0.332011 -0.472058
v -0.613366 -0.332011 -0.472058
v 0.158007 -0.519541 0.373188
v -0.341993 -0.144480 0.373188
v -0.341993 -0.519541 0.373188
v 0.158007 -0.144480 0.373188
v -0.341993 -0.332011 0.745895
v 0.158007 -0.332011 0.745895
v -0.613366 -0.332011 0.497424
v 0.700956 -0.332011 0.497423
vn -0.0000 0.6202 0.7844
vn -0.5683 0.5103 0.6454
vn -0.0000 0.6202 -0.7844
vn 0.2351 0.6029 0.7624
vn -0.0000 -1.0000 -0.0000
vn -0.0000 1.0000 -0.0000
vn -0.5683 0.5103 -0.6454
vn 0.2021 -0.9794 -0.0000
vn 0.1567 0.9876 -0.0000
vn 0.2351 0.6029 -0.7624
vn -0.0000 -0.8933 -0.4495
vn -0.5076 -0.8616 -0.0000
vn -0.4126 0.9109 -0.0000
vn -0.0000 0.8933 -0.4495
vn -0.0000 -0.0000 1.0000
vn 0.2168 -0.0000 0.9762
vn 0.1958 -0.8760 -0.4408
vn 0.1958 0.8760 -0.4408
vn -0.4012 -0.8183 -0.4117
vn -0.4012 0.8183 -0.4117
vn -0.4380 -0.0000 0.8990
vn -0.0000 -0.8933 0.4495
vn -0.0000 0.8933 0.4495
vn -0.0000 -0.0000 -1.0000
vn -0.4163 -0.0000 -0.9092
vn -0.3806 -0.8261 0.4156
vn -0.3806 0.8261 0.4156
vn 0.2015 -0.8750 0.4403
vn 0.2015 0.8750 0.4403
vn 0.2231 -0.0000 -0.9748
vt 0.375000 0.343750
vt 0.468750 0.343750
vt 0.468750 0.500000
vt 0.375000 0.500000
vt 0.531250 0.593750
vt 0.687500 0.500000
vt 0.593750 0.500000
vt 0.593750 0.343750
vt 0.687500 0.343750
vt 0.531250 0.031250
vt 0.328125 0.500000
vt 0.015625 0.500000
vt 0.015625 0.328125
vt 0.328125 0.328125
vt 0.171875 -0.000000
vt 0.968750 0.593750
vt 0.750000 0.593750
vt 0.750000 0.312500
vt 0.968750 0.312500
vt 0.171875 0.617188
vt 0.250000 0.656250
vt 0.250000 0.843750
vt 0.531250 0.843750
vt 0.531250 0.656250
vt 0.250000 0.968750
vt 0.531250 0.968750
vt 0.812500 0.812500
vt 0.843750 0.031250
vt 0.843750 0.750000
vt 0.093750 0.812500
s 0
usemtl ufo_fighter
f 121/165/73 122/166/73 124/167/73 123/168/73
f 123/168/74 124/167/74 130/169/74
f 127/170/75 128/171/75 126/172/75 125/173/75
f 122/166/76 121/165/76 129/174/76
f 123/175/77 127/176/77 125/177/77 121/178/77
f 128/171/78 124/167/78 122/166/78 126/172/78
f 128/171/79 127/170/79 130/169/79
f 121/178/80 125/177/80 129/179/80
f 126/172/81 122/166/81 129/174/81
f 125/173/82 126/172/82 129/174/82
f 131/180/83 136/181/83 135/182/83 133/183/83
f 127/176/84 123/175/84 130/184/84
f 124/167/85 128/171/85 130/169/85
f 136/185/86 134/186/86 132/187/86 135/188/86
f 131/189/87 133/190/87 132/187/87 134/186/87
f 132/187/88 133/190/88 137/191/88
f 133/183/89 135/182/89 137/192/89
f 135/188/90 132/187/90 137/191/90
f 136/181/91 131/180/91 138/193/91
f 134/186/92 136/185/92 138/194/92
f 131/189/93 134/186/93 138/194/93
f 139/182/94 144/183/94 143/180/94 141/181/94
f 144/188/95 142/187/95 140/186/95 143/185/95
f 139/190/96 141/189/96 140/186/96 142/187/96
f 140/186/97 141/189/97 145/194/97
f 141/181/98 143/180/98 145/193/98
f 143/185/99 140/186/99 145/194/99
f 144/183/100 139/182/100 146/192/100
f 142/187/101 144/188/101 146/191/101
f 139/190/102 142/187/102 146/191/102