# Blender 4.4.3
# www.blender.org
mtllib ufo_fighter.mtl
o Aline_fighter
v 0.141622 -0.347798 0.462011
v 0.141622 0.002448 0.185068
v -0.358378 -0.347798 0.462011
v -0.358378 0.002448 0.185068
v 0.141622 -0.347798 -0.442986
v 0.141622 0.002448 -0.166043
v -0.358378 -0.347798 -0.442986
v -0.358378 0.002448 -0.166043
v 1.101252 -0.149792 0.009512
v -0.694446 -0.149792 0.009512
v -0.358379 -0.519541 -0.347822
v 0.141622 -0.144480 -0.347822
v 0.141622 -0.519541 -0.347822
v -0.358379 -0.144480 -0.347822
v 0.141622 -0.332011 -0.720529
v -0.358379 -0.332011 -0.720529
v 0.700956 -0.332011 -0.472058
v -0.613366 -0.332011 -0.472058
v 0.158007 -0.519541 0.373188
v -0.341993 -0.144480 0.373188
v -0.341993 -0.519541 0.373188
v 0.158007 -0.144480 0.373188
v -0.341993 -0.332011 0.745895
v 0.158007 -0.332011 0.745895
v -0.613366 -0.332011 0.497424
v 0.700956 -0.332011 0.497423
vn -0.0000 0.6202 0.7844
vn -0.5683 0.5103 0.6454
vn -0.0000 0.6202 -0.7844
vn 0.2351 0.6029 0.7624
vn -0.0000 -1.0000 -0.0000
vn -0.0000 1.0000 -0.0000
vn -0.5683 0.5103 -0.6454
vn 0.2021 -0.9794 -0.0000
vn 0.1567 0.9876 -0.0000
vn 0.2351 0.6029 -0.7624
vn -0.0000 -0.8933 -0.4495
vn -0.5076 -0.8616 -0.0000
vn -0.4126 0.9109 -0.0000
vn -0.0000 0.8933 -0.4495
vn -0.0000 -0.0000 1.0000
vn 0.2168 -0.0000 0.9762
vn 0.1958 -0.8760 -0.4408
vn 0.1958 0.8760 -0.4408
vn -0.4012 -0.8183 -0.4117
vn -0.4012 0.8183 -0.4117
vn -0.4380 -0.0000 0.8990
vn -0.0000 -0.8933 0.4495
vn -0.0000 0.8933 0.4495
vn -0.0000 -0.0000 -1.0000
vn -0.4163 -0.0000 -0.9092
vn -0.3806 -0.8261 0.4156
vn -0.3806 0.8261 0.4156
vn 0.2015 -0.8750 0.4403
vn 0.2015 0.8750 0.4403
vn 0.2231 -0.0000 -0.9748
vt 0.375000 0.343750
vt 0.468750 0.343750
vt 0.468750 0.500000
vt 0.375000 0.500000
vt 0.531250 0.593750
vt 0.687500 0.500000
vt 0.593750 0.500000
vt 0.593750 0.343750
vt 0.687500 0.343750
vt 0.531250 0.031250
vt 0.328125 0.500000
vt 0.015625 0.500000
vt 0.015625 0.328125
vt 0.328125 0.328125
vt 0.171875 -0.000000
vt 0.968750 0.593750
vt 0.750000 0.593750
vt 0.750000 0.312500
vt 0.968750 0.312500
vt 0.171875 0.617188
vt 0.250000 0.656250
vt 0.250000 0.843750
vt 0.531250 0.843750
vt 0.531250 0.656250
vt 0.250000 0.968750
vt 0.531250 0.968750
vt 0.812500 0.812500
vt 0.843750 0.031250
vt 0.843750 0.750000
vt 0.093750 0.812500
s 0
usemtl ufo_fighter
f 1/1/1 2/2/1 4/3/1 3/4/1
f 3/4/2 4/3/2 10/5/2
f 7/6/3 8/7/3 6/8/3 5/9/3
f 2/2/4 1/1/4 9/10/4
f 3/11/5 7/12/5 5/13/5 1/14/5
f 8/7/6 4/3/6 2/2/6 6/8/6
f 8/7/7 7/6/7 10/5/7
f 1/14/8 5/13/8 9/15/8
f 6/8/9 2/2/9 9/10/9
f 5/9/10 6/8/10 9/10/10
f 11/16/11 16/17/11 15/18/11 13/19/11
f 7/12/12 3/11/12 10/20/12
f 4/3/13 8/7/13 10/5/13
f 16/21/14 14/22/14 12/23/14 15/24/14
f 11/25/15 13/26/15 12/23/15 14/22/15
f 12/23/16 13/26/16 17/27/16
f 13/19/17 15/18/17 17/28/17
f 15/24/18 12/23/18 17/27/18
f 16/17/19 11/16/19 18/29/19
f 14/22/20 16/21/20 18/30/20
f 11/25/21 14/22/21 18/30/21
f 19/18/22 24/19/22 23/16/22 21/17/22
f 24/24/23 22/23/23 20/22/23 23/21/23
f 19/26/24 21/25/24 20/22/24 22/23/24
f 20/22/25 21/25/25 25/30/25
f 21/17/26 23/16/26 25/29/26
f 23/21/27 20/22/27 25/30/27
f 24/19/28 19/18/28 26/28/28
f 22/23/29 24/24/29 26/27/29
f 19/26/30 22/23/30 26/27/30