# Blender 4.4.3
# www.blender.org
mtllib ufo_mother.mtl
o Cylinder
v 0.000000 0.113531 -6.828631
v 0.000000 1.857766 -3.413026
v 4.828572 0.113531 -4.828572
v 2.413374 1.857766 -2.413374
v 6.828631 0.113531 0.000000
v 3.413026 1.857766 0.000000
v 4.828572 0.113531 4.828572
v 2.413374 1.857766 2.413374
v 0.000000 0.113531 6.828631
v 0.000000 1.857766 3.413026
v -4.828572 0.113531 4.828572
v -2.413374 1.857766 2.413374
v -6.828631 0.113531 0.000000
v -3.413026 1.857766 0.000000
v -4.828572 0.113531 -4.828572
v -2.413374 1.857766 -2.413374
v 0.000000 -1.618477 -4.980918
v 3.522041 -1.618477 -3.522041
v 4.980918 -1.618477 0.000000
v 3.522041 -1.618477 3.522041
v 0.000000 -1.618477 4.980918
v -3.522041 -1.618477 3.522041
v -4.980918 -1.618477 0.000000
v -3.522041 -1.618477 -3.522041
v 1.859251 0.527616 -1.859251
v 0.000000 0.527616 -2.629378
v 2.629378 0.527616 0.000000
v 1.859251 0.527616 1.859251
v 0.000000 0.527616 2.629378
v -1.859251 0.527616 1.859251
v -2.629378 0.527616 0.000000
v -1.859251 0.527616 -1.859251
vn 0.1851 0.8752 -0.4469
vn 0.4469 0.8752 -0.1851
vn 0.4469 0.8752 0.1851
vn 0.1851 0.8752 0.4469
vn -0.1851 0.8752 0.4469
vn -0.4469 0.8752 0.1851
vn -0.0000 1.0000 -0.0000
vn -0.4469 0.8752 -0.1851
vn -0.1851 0.8752 -0.4469
vn -0.0000 -1.0000 -0.0000
vn 0.6493 0.7114 -0.2689
vn -0.6493 0.7114 -0.2689
vn -0.2689 0.7114 0.6493
vn 0.6493 0.7114 0.2689
vn 0.2689 0.7114 -0.6493
vn -0.2689 0.7114 -0.6493
vn -0.6493 0.7114 0.2689
vn 0.2689 0.7114 0.6493
vt 0.289062 0.656250
vt 0.031250 0.562500
vt 0.031250 0.375000
vt 0.289062 0.281250
vt 0.031250 0.601562
vt 0.296875 0.695312
vt 0.296875 0.882812
vt 0.031250 0.976562
vt 0.921875 0.359375
vt 0.789062 0.414062
vt 0.656250 0.359375
vt 0.601562 0.226562
vt 0.656250 0.093750
vt 0.789062 0.039062
vt 0.921875 0.093750
vt 0.976562 0.226562
vt 0.320312 0.281250
vt 0.414062 0.250000
vt 0.445312 0.156250
vt 0.414062 0.062500
vt 0.320312 0.031250
vt 0.226562 0.062500
vt 0.195312 0.156250
vt 0.226562 0.250000
vt 0.695312 0.562500
vt 0.648438 0.679688
vt 0.695312 0.804688
vt 0.812500 0.851562
vt 0.929688 0.804688
vt 0.976562 0.679688
vt 0.929688 0.562500
vt 0.812500 0.515625
vt 0.351562 0.640625
vt 0.351562 0.281250
vt 0.632812 0.367188
vt 0.632812 0.554688
vt 0.617188 0.625000
vt 0.617188 0.960938
vt 0.343750 0.882812
vt 0.343750 0.695312
s 0
usemtl ufo_mother
f 1/1/1 2/2/1 4/3/1 3/4/1
f 3/5/2 4/6/2 6/7/2 5/8/2
f 5/1/3 6/2/3 8/3/3 7/4/3
f 7/5/4 8/6/4 10/7/4 9/8/4
f 9/1/5 10/2/5 12/3/5 11/4/5
f 11/5/6 12/6/6 14/7/6 13/8/6
f 4/9/7 2/10/7 16/11/7 14/12/7 12/13/7 10/14/7 8/15/7 6/16/7
f 13/1/8 14/2/8 16/3/8 15/4/8
f 15/5/9 16/6/9 2/7/9 1/8/9
f 1/17/10 3/18/10 5/19/10 7/20/10 9/21/10 11/22/10 13/23/10 15/24/10
f 18/25/10 19/26/10 20/27/10 21/28/10 22/29/10 23/30/10 24/31/10 17/32/10
f 19/33/11 18/34/11 25/35/11 27/36/11
f 24/37/12 23/38/12 31/39/12 32/40/12
f 22/37/13 21/38/13 29/39/13 30/40/13
f 20/37/14 19/38/14 27/39/14 28/40/14
f 18/37/15 17/38/15 26/39/15 25/40/15
f 17/33/16 24/34/16 32/35/16 26/36/16
f 23/33/17 22/34/17 30/35/17 31/36/17
f 21/33/18 20/34/18 28/35/18 29/36/18